<svg width="48" height="48" viewBox="0 0 48 48" fill="none" xmlns="http://www.w3.org/2000/svg">
<path d="M18 8H30M30 22C30 22.5304 30.2107 23.0391 30.5857 23.4142C30.9608 23.7893 31.4695 24 32 24H37.8779C38.3309 23.9116 38.8005 23.9826 39.207 24.2009C39.6136 24.4192 39.9322 24.7714 40.1088 25.1977C40.2853 25.6241 40.309 26.0984 40.1758 26.5402C40.0426 26.9821 39.7607 27.3643 39.3779 27.622L25.708 41.294C25.4838 41.5182 25.2177 41.696 24.9248 41.8173C24.6319 41.9386 24.318 42.0011 24.0009 42.0011C23.6839 42.0011 23.37 41.9386 23.0771 41.8173C22.7842 41.696 22.5181 41.5182 22.294 41.294L8.61995 27.62C8.23715 27.3623 7.95526 26.9801 7.82206 26.5382C7.68886 26.0964 7.71256 25.6221 7.88913 25.1957C8.0657 24.7694 8.38428 24.4172 8.79087 24.1989C9.19745 23.9806 9.66701 23.9096 10.12 23.998H16C16.5304 23.998 17.0391 23.7873 17.4142 23.4122C17.7892 23.0371 18 22.5284 18 21.998V18C18 17.4696 18.2107 16.9609 18.5857 16.5858C18.9608 16.2107 19.4695 16 20 16H28C28.5304 16 29.0391 16.2107 29.4142 16.5858C29.7892 16.9609 30 17.4696 30 18V22Z" stroke="#F54900" stroke-width="2" stroke-linecap="round" stroke-linejoin="round"/>
</svg>
