<svg width="48" height="48" viewBox="0 0 48 48" fill="none" xmlns="http://www.w3.org/2000/svg">
<path d="M8 44V8C8 7.68951 8.07229 7.38328 8.21115 7.10557C8.35 6.82786 8.55161 6.58629 8.8 6.4C10.8772 4.84213 13.4036 4 16 4C22 4 26 8 30.666 8C33.3327 8 35.3773 7.46667 36.8 6.4C37.0971 6.17715 37.4505 6.04144 37.8204 6.00808C38.1903 5.97473 38.5622 6.04504 38.8944 6.21115C39.2266 6.37725 39.506 6.63259 39.7013 6.94854C39.8966 7.26449 40 7.62858 40 8V28C40 28.3105 39.9277 28.6167 39.7889 28.8944C39.65 29.1721 39.4484 29.4137 39.2 29.6C37.1228 31.1579 34.5964 32 32 32C26 32 22 28 16 28C13.0482 28.0001 10.2 29.0881 8 31.056" stroke="#F54900" stroke-width="2" stroke-linecap="round" stroke-linejoin="round"/>
</svg>
