<svg width="48" height="48" viewBox="0 0 48 48" fill="none" xmlns="http://www.w3.org/2000/svg">
<path d="M14.42 30L5.32 14.28C4.92761 13.6017 4.74306 12.8232 4.78928 12.041C4.83551 11.2587 5.11046 10.5073 5.58 9.88L8.8 5.6C9.17259 5.10322 9.65573 4.7 10.2111 4.42229C10.7666 4.14458 11.379 4 12 4H36C36.621 4 37.2334 4.14458 37.7889 4.42229C38.3443 4.7 38.8274 5.10322 39.2 5.6L42.4 9.88C42.8727 10.5053 43.1512 11.2557 43.2009 12.0379C43.2507 12.8202 43.0696 13.5998 42.68 14.28L33.58 30M22 24L10.24 4.4M26 24L37.76 4.4M16 14H32M24 36V32H23M34 34C34 39.5228 29.5229 44 24 44C18.4772 44 14 39.5228 14 34C14 28.4772 18.4772 24 24 24C29.5229 24 34 28.4772 34 34Z" stroke="#2DD4BF" stroke-width="2" stroke-linecap="round" stroke-linejoin="round"/>
</svg>
