<svg width="48" height="48" viewBox="0 0 48 48" fill="none" xmlns="http://www.w3.org/2000/svg">
<path d="M24 16V24M24 32H24.02M5.98399 32.684C6.27807 33.4258 6.34354 34.2387 6.17199 35.018L4.04199 41.598C3.97336 41.9317 3.99111 42.2774 4.09354 42.6023C4.19598 42.9272 4.37972 43.2206 4.62733 43.4545C4.87494 43.6885 5.17821 43.8554 5.50839 43.9393C5.83857 44.0232 6.18471 44.0214 6.51399 43.934L13.34 41.938C14.0754 41.7921 14.837 41.8559 15.538 42.122C19.8088 44.1164 24.6467 44.5384 29.1983 43.3134C33.7499 42.0885 37.7225 39.2953 40.4154 35.4267C43.1082 31.5582 44.3482 26.8628 43.9166 22.1691C43.4849 17.4754 41.4094 13.0849 38.0561 9.77239C34.7029 6.45984 30.2874 4.43808 25.5888 4.06379C20.8901 3.68951 16.2103 4.98676 12.3749 7.72668C8.53949 10.4666 5.79505 14.4731 4.62578 19.0393C3.4565 23.6055 3.93753 28.4379 5.98399 32.684Z" stroke="#F54900" stroke-width="2" stroke-linecap="round" stroke-linejoin="round"/>
</svg>
