<svg width="48" height="48" viewBox="0 0 48 48" fill="none" xmlns="http://www.w3.org/2000/svg">
<path d="M36 16V12C36 10.9391 35.5786 9.92172 34.8284 9.17157C34.0783 8.42143 33.0609 8 32 8H8C6.93913 8 5.92172 8.42143 5.17157 9.17157C4.42143 9.92172 4 10.9391 4 12V26C4 27.0609 4.42143 28.0783 5.17157 28.8284C5.92172 29.5786 6.93913 30 8 30H24M20 38V30.08V36.38M14 38H24M36 24H40C42.2091 24 44 25.7909 44 28V40C44 42.2091 42.2091 44 40 44H36C33.7909 44 32 42.2091 32 40V28C32 25.7909 33.7909 24 36 24Z" stroke="#2DD4BF" stroke-width="2" stroke-linecap="round" stroke-linejoin="round"/>
</svg>
