<svg width="48" height="48" viewBox="0 0 48 48" fill="none" xmlns="http://www.w3.org/2000/svg">
<path d="M4 26C4 27.5759 4.31039 29.1363 4.91345 30.5922C5.5165 32.0481 6.40042 33.371 7.51472 34.4853C8.62902 35.5996 9.95189 36.4835 11.4078 37.0866C12.8637 37.6896 14.4241 38 16 38C17.5759 38 19.1363 37.6896 20.5922 37.0866C22.0481 36.4835 23.371 35.5996 24.4853 34.4853C25.5996 33.371 26.4835 32.0481 27.0866 30.5922C27.6896 29.1363 28 27.5759 28 26C28 23.8783 27.1571 21.8434 25.6569 20.3431C24.1566 18.8429 22.1217 18 20 18C17.8783 18 15.8434 18.8429 14.3431 20.3431C12.8429 21.8434 12 23.8783 12 26C12 27.0609 12.4214 28.0783 13.1716 28.8284C13.9217 29.5786 14.9391 30 16 30C17.0609 30 18.0783 29.5786 18.8284 28.8284C19.5786 28.0783 20 27.0609 20 26M4 26C4 34.8366 11.1634 42 20 42C28.8366 42 36 34.8366 36 26M4 26C4 17.1634 11.1634 10 20 10C28.8366 10 36 17.1634 36 26M36 26V14C36 12.9391 36.4214 11.9217 37.1716 11.1716C37.9217 10.4214 38.9391 10 40 10C41.0609 10 42.0783 10.4214 42.8284 11.1716C43.5786 11.9217 44 12.9391 44 14V26C44 34.8 36.8 42 28 42H4M36 6L38.2 10.4M44 6L41.8 10.4" stroke="#F54900" stroke-width="2" stroke-linecap="round" stroke-linejoin="round"/>
</svg>
