<svg width="48" height="48" viewBox="0 0 48 48" fill="none" xmlns="http://www.w3.org/2000/svg">
<path d="M20 4H28M24 28V20M8 26C8.48973 22.1119 10.3893 18.5388 13.3385 15.9583C16.2877 13.3777 20.0813 11.9693 24 12C26.5881 12.0028 29.1369 12.6333 31.4278 13.8375C33.7186 15.0418 35.6832 16.7837 37.1529 18.914C38.6226 21.0444 39.5536 23.4994 39.866 26.0686C40.1784 28.6377 39.8629 31.2443 38.9466 33.6648C38.0303 36.0852 36.5405 38.2473 34.605 39.9655C32.6695 41.6836 30.3461 42.9067 27.8341 43.5296C25.3221 44.1525 22.6965 44.1568 20.1825 43.5421C17.6684 42.9273 15.3411 41.7119 13.4 40L8 35.2M18 34H8V44" stroke="#F54900" stroke-width="2" stroke-linecap="round" stroke-linejoin="round"/>
</svg>
