<svg width="48" height="48" viewBox="0 0 48 48" fill="none" xmlns="http://www.w3.org/2000/svg">
<path d="M14 22V30C14 31.0609 14.4214 32.0783 15.1716 32.8284C15.9217 33.5786 16.9391 34 18 34H26M10 6H18C20.2091 6 22 7.79086 22 10V18C22 20.2091 20.2091 22 18 22H10C7.79086 22 6 20.2091 6 18V10C6 7.79086 7.79086 6 10 6ZM30 26H38C40.2091 26 42 27.7909 42 30V38C42 40.2091 40.2091 42 38 42H30C27.7909 42 26 40.2091 26 38V30C26 27.7909 27.7909 26 30 26Z" stroke="#2DD4BF" stroke-width="2" stroke-linecap="round" stroke-linejoin="round"/>
</svg>
