<svg width="48" height="48" viewBox="0 0 48 48" fill="none" xmlns="http://www.w3.org/2000/svg">
<path d="M24 18V20.516M32 6V16.92M42 18.236V10C42 8.93913 41.5786 7.92172 40.8284 7.17157C40.0783 6.42143 39.0609 6 38 6H10C8.93913 6 7.92172 6.42143 7.17157 7.17157C6.42143 7.92172 6 8.93913 6 10V38C6 39.0609 6.42143 40.0783 7.17157 40.8284C7.92172 41.5786 8.93913 42 10 42H21.5M6 30H20M6 18H30.284M16 30V42M16 6V18M44 35C44 39.998 40.5 42.498 36.34 43.948C36.1222 44.0218 35.8855 44.0183 35.67 43.938C31.5 42.498 28 39.998 28 34.998V28C28.0005 27.7351 28.1061 27.4813 28.2936 27.2942C28.4811 27.1071 28.7351 27.002 29 27.002C31 27.002 33.5 25.802 35.24 24.282C35.4542 24.1062 35.7226 24.01 35.9996 24.0097C36.2767 24.0093 36.5454 24.1048 36.76 24.28C38.51 25.81 41 27 43 27C43.2652 27 43.5196 27.1054 43.7071 27.2929C43.8946 27.4804 44 27.7348 44 28V35Z" stroke="#2DD4BF" stroke-width="2" stroke-linecap="round" stroke-linejoin="round"/>
</svg>
