<svg width="48" height="48" viewBox="0 0 48 48" fill="none" xmlns="http://www.w3.org/2000/svg">
<path d="M34.0005 30.0001L23.0005 41.0001L18.0005 36.0001M10.0005 35.4861C8.16634 34.2081 6.66483 32.5094 5.62165 30.5322C4.57846 28.555 4.02393 26.3568 4.00444 24.1213C3.98495 21.8859 4.50107 19.6783 5.50962 17.6832C6.51817 15.6881 7.98982 13.9636 9.80147 12.6538C11.6131 11.344 13.7121 10.4871 15.9228 10.1548C18.1334 9.8225 20.3916 10.0244 22.5082 10.7437C24.6249 11.4629 26.5385 12.6786 28.0891 14.289C29.6396 15.8994 30.782 17.8577 31.4205 20.0001H35.0005C37.123 20.0009 39.1768 20.7518 40.7993 22.1202C42.4217 23.4885 43.5084 25.3862 43.8673 27.478C44.2262 29.5699 43.8343 31.7213 42.7608 33.5522C41.6873 35.3831 40.0013 36.7757 38.0005 37.4841" stroke="#2DD4BF" stroke-width="2" stroke-linecap="round" stroke-linejoin="round"/>
</svg>
