<svg width="48" height="48" viewBox="0 0 48 48" fill="none" xmlns="http://www.w3.org/2000/svg">
<path d="M14.0007 6.68V10C14.0007 11.5913 14.6329 13.1174 15.7581 14.2426C16.8833 15.3679 18.4094 16 20.0007 16M22.0007 43.9V36C22.0007 34.9391 21.5793 33.9217 20.8292 33.1716C20.079 32.4214 19.0616 32 18.0007 32C16.9399 32 15.9225 31.5786 15.1723 30.8284C14.4222 30.0783 14.0007 29.0609 14.0007 28V26C14.0007 24.9391 13.5793 23.9217 12.8292 23.1716C12.079 22.4214 11.0616 22 10.0007 22H4.10075M30.0007 43.08V34C30.0007 32.9391 30.4222 31.9217 31.1723 31.1716C31.9225 30.4214 32.9399 30 34.0007 30H43.0807C41.9718 33.5262 39.9074 36.676 37.1166 39.0999C34.3258 41.5238 30.9178 43.1268 27.2711 43.731C23.6244 44.3352 19.8816 43.917 16.4582 42.5227C13.0348 41.1285 10.0647 38.8127 7.87781 35.8326C5.69087 32.8526 4.37261 29.3247 4.06937 25.6407C3.76613 21.9567 4.48978 18.2608 6.15998 14.9632C7.83018 11.6656 10.3816 8.89541 13.5309 6.96013C16.6803 5.02485 20.3043 4.00022 24.0007 4M40.0007 12V8C40.0007 6.93913 39.5793 5.92172 38.8292 5.17157C38.079 4.42143 37.0616 4 36.0007 4C34.9399 4 33.9225 4.42143 33.1723 5.17157C32.4222 5.92172 32.0007 6.93913 32.0007 8V12M30.0007 12H42.0007C43.1053 12 44.0007 12.8954 44.0007 14V20C44.0007 21.1046 43.1053 22 42.0007 22H30.0007C28.8962 22 28.0007 21.1046 28.0007 20V14C28.0007 12.8954 28.8962 12 30.0007 12Z" stroke="#2DD4BF" stroke-width="2" stroke-linecap="round" stroke-linejoin="round"/>
</svg>
