<svg width="40" height="40" viewBox="0 0 40 40" fill="none" xmlns="http://www.w3.org/2000/svg">
<path d="M20.0004 21.6666V3.33325L33.3338 9.99992L20.0004 16.6666M34.2688 17.0366C35.1557 19.7702 35.2387 22.701 34.5079 25.4803C33.777 28.2597 32.2632 30.7706 30.1464 32.7144C28.0296 34.6581 25.399 35.9529 22.5675 36.4446C19.736 36.9363 16.8229 36.6043 14.1747 35.4881C11.5265 34.3718 9.2547 32.5183 7.62959 30.1481C6.00447 27.7779 5.09446 24.9907 5.0078 22.1181C4.92114 19.2456 5.6615 16.4086 7.14078 13.9447C8.62007 11.4808 10.776 9.49377 13.3521 8.21992M13.3371 16.6616C12.502 17.7733 11.9582 19.0763 11.7555 20.4519C11.5528 21.8275 11.6975 23.232 12.1764 24.5373C12.6554 25.8427 13.4534 27.0075 14.4977 27.9255C15.5419 28.8436 16.7994 29.4858 18.1553 29.7935C19.5113 30.1013 20.9227 30.0649 22.261 29.6876C23.5993 29.3103 24.8219 28.6041 25.8175 27.6334C26.813 26.6627 27.5498 25.4583 27.9608 24.13C28.3718 22.8016 28.4439 21.3916 28.1704 20.0283" stroke="#00D5BE" stroke-width="1.66667" stroke-linecap="round" stroke-linejoin="round"/>
</svg>
