<svg width="48" height="48" viewBox="0 0 48 48" fill="none" xmlns="http://www.w3.org/2000/svg">
<path d="M20.0004 17.9999L14.0004 23.9999L20.0004 29.9999M28.0004 29.9999L34.0004 23.9999L28.0004 17.9999M5.98436 32.6839C6.27844 33.4257 6.34391 34.2385 6.17236 35.0179L4.04236 41.5979C3.97373 41.9316 3.99147 42.2773 4.09391 42.6022C4.19635 42.9271 4.38008 43.2204 4.62769 43.4544C4.8753 43.6884 5.17858 43.8553 5.50876 43.9392C5.83894 44.0231 6.18508 44.0213 6.51436 43.9339L13.3404 41.9379C14.0758 41.792 14.8374 41.8558 15.5384 42.1219C19.8091 44.1163 24.6471 44.5383 29.1987 43.3133C33.7502 42.0884 37.7229 39.2952 40.4158 35.4266C43.1086 31.558 44.3486 26.8627 43.917 22.169C43.4853 17.4753 41.4098 13.0848 38.0565 9.77227C34.7032 6.45972 30.2878 4.43795 25.5891 4.06367C20.8905 3.68939 16.2106 4.98664 12.3752 7.72655C8.53986 10.4665 5.79542 14.473 4.62615 19.0392C3.45687 23.6053 3.9379 28.4378 5.98436 32.6839Z" stroke="#2DD4BF" stroke-width="2" stroke-linecap="round" stroke-linejoin="round"/>
</svg>
