<svg width="48" height="48" viewBox="0 0 48 48" fill="none" xmlns="http://www.w3.org/2000/svg">
<path d="M11 40H16M34 18H34.02M16 12H8C6.93913 12 5.92172 12.4214 5.17157 13.1716C4.42143 13.9217 4 14.9391 4 16V28C4 29.0609 4.42143 30.0783 5.17157 30.8284C5.92172 31.5786 6.93913 32 8 32H16M28 8H40C42.2091 8 44 9.79086 44 12V36C44 38.2091 42.2091 40 40 40H28C25.7909 40 24 38.2091 24 36V12C24 9.79086 25.7909 8 28 8ZM36 30C36 31.1046 35.1046 32 34 32C32.8954 32 32 31.1046 32 30C32 28.8954 32.8954 28 34 28C35.1046 28 36 28.8954 36 30Z" stroke="#2DD4BF" stroke-width="2" stroke-linecap="round" stroke-linejoin="round"/>
</svg>
