<svg width="40" height="40" viewBox="0 0 40 40" fill="none" xmlns="http://www.w3.org/2000/svg">
<path d="M22.333 3.33326H9.99967C9.11562 3.33326 8.26777 3.68445 7.64265 4.30957C7.01753 4.93469 6.66634 5.78253 6.66634 6.66659V33.3333C6.66634 34.2173 7.01753 35.0652 7.64265 35.6903C8.26777 36.3154 9.11562 36.6666 9.99967 36.6666H29.9997C30.8837 36.6666 31.7316 36.3154 32.3567 35.6903C32.9818 35.0652 33.333 34.2173 33.333 33.3333V20.9999M3.33301 9.99992H9.99967M3.33301 16.6666H9.99967M3.33301 23.3333H9.99967M3.33301 29.9999H9.99967M35.6297 9.37659C36.2936 8.71266 36.6666 7.81219 36.6666 6.87326C36.6666 5.93432 36.2936 5.03385 35.6297 4.36992C34.9657 3.706 34.0653 3.33301 33.1263 3.33301C32.1874 3.33301 31.2869 3.706 30.623 4.36992L22.273 12.7233C21.8768 13.1193 21.5867 13.6088 21.4297 14.1466L20.0347 18.9299C19.9928 19.0733 19.9903 19.2254 20.0274 19.3701C20.0645 19.5148 20.1398 19.6469 20.2454 19.7525C20.3511 19.8581 20.4831 19.9334 20.6279 19.9705C20.7726 20.0076 20.9246 20.0051 21.068 19.9633L25.8513 18.5683C26.3891 18.4112 26.8786 18.1212 27.2747 17.7249L35.6297 9.37659Z" stroke="#00D5BE" stroke-width="1.66667" stroke-linecap="round" stroke-linejoin="round"/>
</svg>
